<?xml version="1.0" encoding="UTF-8"?>
<svg width="31px" height="31px" viewBox="0 0 31 31" version="1.1" xmlns="http://www.w3.org/2000/svg" xmlns:xlink="http://www.w3.org/1999/xlink">
    <!-- Generator: Sketch 47.1 (45422) - http://www.bohemiancoding.com/sketch -->
    <title>Lowercase-Outline</title>
    <desc>Created with Sketch.</desc>
    <defs></defs>
    <g id="Page-3" stroke="none" stroke-width="1" fill="none" fill-rule="evenodd">
        <g id="Classify" transform="translate(-14.000000, -396.000000)" stroke="#646464">
            <g id="Lowercase-Outline" transform="translate(15.000000, 397.000000)">
                <polygon id="Path" points="0 29 29 29 29 0 0 0"></polygon>
                <path d="M4.07017544,5.59649123 L4.07017544,7.63157895 L4.07017544,5.59649123 Z" id="Path"></path>
                <path d="M4.07017544,5.59649123 L18.3157895,5.59649123 L4.07017544,5.59649123 Z" id="Path"></path>
                <path d="M18.3157895,5.59649123 L18.3157895,7.63157895 L18.3157895,5.59649123 Z" id="Path"></path>
                <path d="M16.7894737,13.2280702 L16.7894737,14.245614 L16.7894737,13.2280702 Z" id="Path"></path>
                <path d="M24.9298246,13.2280702 L24.9298246,14.245614 L24.9298246,13.2280702 Z" id="Path"></path>
                <path d="M11.1929825,5.59649123 L11.1929825,23.9122807 L11.1929825,5.59649123 Z" id="Path"></path>
                <path d="M8.14035088,23.9122807 L14.245614,23.9122807 L8.14035088,23.9122807 Z" id="Path"></path>
                <path d="M20.8596491,13.2280702 L20.8596491,23.9122807 L20.8596491,13.2280702 Z" id="Path"></path>
                <path d="M18.8245614,23.9122807 L22.8947368,23.9122807 L18.8245614,23.9122807 Z" id="Path"></path>
                <path d="M16.7894737,13.2280702 L24.9298246,13.2280702 L16.7894737,13.2280702 Z" id="Path"></path>
            </g>
        </g>
    </g>
</svg>