<?xml version="1.0" encoding="UTF-8"?>
<svg width="56px" height="60px" viewBox="0 0 56 60" version="1.1" xmlns="http://www.w3.org/2000/svg" xmlns:xlink="http://www.w3.org/1999/xlink">
    <!-- Generator: Sketch 47.1 (45422) - http://www.bohemiancoding.com/sketch -->
    <title>Microscope-Outline</title>
    <desc>Created with Sketch.</desc>
    <defs></defs>
    <g id="Page-3" stroke="none" stroke-width="1" fill="none" fill-rule="evenodd" opacity="0.400000006">
        <g id="step1" transform="translate(-802.000000, -387.000000)" stroke-width="2" stroke="#646464">
            <g id="Microscope-Outline" transform="translate(830.000000, 417.000000) scale(-1, 1) translate(-830.000000, -417.000000) translate(803.000000, 388.000000)">
                <polygon id="Stroke-924" points="0 58 54 58 54 54 0 54"></polygon>
                <path d="M40,54 L36.932,43.57 C35.787,39.675 32.212,37 28.152,37 L28.152,37 C23.098,37 19,41.098 19,46.152 L19,54 L40,54 L40,54 Z" id="Stroke-925"></path>
                <path d="M33,46 C33,43.239 30.761,41 28,41 C25.239,41 23,43.239 23,46 C23,48.761 25.239,51 28,51 C30.761,51 33,48.761 33,46 L33,46 Z" id="Stroke-926"></path>
                <path d="M19,46 C19,45.308 19.097,44.64 19.262,44 L4,44 L4,48 L19,48 L19,46 L19,46 Z" id="Stroke-927"></path>
                <path d="M39,19 C39,15.686 36.314,13 33,13 C29.686,13 27,15.686 27,19 C27,22.314 29.686,25 33,25 C36.314,25 39,22.314 39,19 L39,19 Z" id="Stroke-928"></path>
                <polygon id="Stroke-929" points="36.657 9.5676 31.689 6.2026 33.317 3.6616 38.285 7.0266"></polygon>
                <path d="M38.2851,7.0265 L33.3171,3.6615 C32.4031,3.0425 32.1751,1.7815 32.7951,0.8665 L32.7951,0.8665 C33.4141,-0.0475 34.6461,-0.2695 35.5611,0.3495 L40.5281,3.7145 C41.4431,4.3345 41.6941,5.5605 41.0741,6.4755 L41.0741,6.4755 C40.4551,7.3895 39.1991,7.6455 38.2851,7.0265 L38.2851,7.0265 Z" id="Stroke-930"></path>
                <polygon id="Stroke-931" points="22.6262 30.2661 17.6582 26.9011 18.2462 22.4681 26.5252 28.0761"></polygon>
                <polygon id="Stroke-932" points="20.383 33.5779 15.415 30.2129 17.659 26.9009 22.626 30.2659"></polygon>
                <polygon id="Stroke-933" points="17.3118 36.3288 13.9998 34.0858 16.2438 30.7738 19.5548 33.0168"></polygon>
                <path d="M27,19 C27,15.686 29.686,13 33,13 C34.153,13 35.226,13.331 36.14,13.894 L38.313,10.689 L30.033,5.081 L18.246,22.468 L26.525,28.076 L29.42,23.807 C27.954,22.713 27,20.97 27,19 L27,19 Z" id="Stroke-934"></path>
                <path d="M35,17 L31,21" id="Stroke-935"></path>
                <path d="M31,17 L35,21" id="Stroke-936"></path>
                <path d="M29.4142,44.5858 L26.5862,47.4138" id="Stroke-937"></path>
                <path d="M26.5942,44.5774 L29.4142,47.4144" id="Stroke-938"></path>
                <path d="M33.8947,39.0349 C35.3097,40.1759 36.3927,41.7349 36.9327,43.5699 L37.8767,46.7809 C41.6537,42.9849 43.9997,37.7659 43.9997,31.9999 C43.9997,26.8119 42.0987,22.0659 38.9697,18.3979 C38.9897,18.5959 38.9997,18.7969 38.9997,18.9999 C38.9997,22.0099 36.7817,24.4949 33.8927,24.9269 C35.2207,26.9649 35.9997,29.3909 35.9997,31.9999 C35.9997,34.5979 35.2147,37.0049 33.8947,39.0349 L33.8947,39.0349 Z" id="Stroke-939"></path>
            </g>
        </g>
    </g>
</svg>